<svg width="886" height="886" viewBox="0 0 886 886" fill="none" xmlns="http://www.w3.org/2000/svg">
<path d="M883 443C883 686.005 686.005 883 443 883C199.995 883 3 686.005 3 443C3 199.995 199.995 3 443 3C686.005 3 883 199.995 883 443Z" fill="#FFDCDC" stroke="black" stroke-width="6"/>
<mask id="path-2-inside-1_119_64" fill="white">
<path fill-rule="evenodd" clip-rule="evenodd" d="M316.748 182.059C301.691 164.893 279.594 154.056 254.965 154.056C209.594 154.056 172.812 190.837 172.812 236.209C172.812 255.582 179.518 273.388 190.734 287.434C222.377 241.953 265.873 205.337 316.748 182.059Z"/>
</mask>
<path fill-rule="evenodd" clip-rule="evenodd" d="M316.748 182.059C301.691 164.893 279.594 154.056 254.965 154.056C209.594 154.056 172.812 190.837 172.812 236.209C172.812 255.582 179.518 273.388 190.734 287.434C222.377 241.953 265.873 205.337 316.748 182.059Z" fill="black"/>
<path d="M316.748 182.059L317.164 182.969L318.386 182.41L317.5 181.4L316.748 182.059ZM190.734 287.434L189.953 288.058L190.79 289.106L191.555 288.005L190.734 287.434ZM254.965 155.056C279.294 155.056 301.121 165.76 315.996 182.719L317.5 181.4C302.261 164.027 279.894 153.056 254.965 153.056V155.056ZM173.812 236.209C173.812 191.39 210.146 155.056 254.965 155.056V153.056C209.041 153.056 171.812 190.285 171.812 236.209H173.812ZM191.516 286.81C180.436 272.935 173.812 255.347 173.812 236.209H171.812C171.812 255.817 178.6 273.842 189.953 288.058L191.516 286.81ZM191.555 288.005C223.097 242.67 266.454 206.171 317.164 182.969L316.332 181.15C265.293 204.503 221.658 241.237 189.913 286.863L191.555 288.005Z" fill="black" mask="url(#path-2-inside-1_119_64)"/>
<mask id="path-4-inside-2_119_64" fill="white">
<path fill-rule="evenodd" clip-rule="evenodd" d="M702.16 291.601C716.52 273.847 723.448 250.231 719.266 225.96C711.562 181.247 669.069 151.245 624.356 158.949C605.265 162.239 588.855 171.87 576.918 185.309C627.111 208.77 670.582 245.417 702.16 291.601Z"/>
</mask>
<path fill-rule="evenodd" clip-rule="evenodd" d="M702.16 291.601C716.52 273.847 723.448 250.231 719.266 225.96C711.562 181.247 669.069 151.245 624.356 158.949C605.265 162.239 588.855 171.87 576.918 185.309C627.111 208.77 670.582 245.417 702.16 291.601Z" fill="black"/>
<path d="M702.16 291.601L701.334 292.165L702.092 293.274L702.937 292.229L702.16 291.601ZM576.918 185.309L576.17 184.645L575.28 185.647L576.495 186.215L576.918 185.309ZM718.28 226.13C722.411 250.105 715.569 273.433 701.382 290.972L702.937 292.229C717.471 274.262 724.484 250.357 720.251 225.79L718.28 226.13ZM624.526 159.935C668.695 152.325 710.67 181.961 718.28 226.13L720.251 225.79C712.453 180.533 669.444 150.166 624.186 157.964L624.526 159.935ZM577.666 185.973C589.458 172.698 605.666 163.185 624.526 159.935L624.186 157.964C604.864 161.293 588.253 171.043 576.17 184.645L577.666 185.973ZM576.495 186.215C626.527 209.601 669.858 246.131 701.334 292.165L702.985 291.036C671.305 244.703 627.695 207.939 577.341 184.403L576.495 186.215Z" fill="black" mask="url(#path-4-inside-2_119_64)"/>
<path d="M751 448C751 607.96 613.984 738 444.5 738C275.016 738 138 607.96 138 448C138 288.04 275.016 158 444.5 158C613.984 158 751 288.04 751 448Z" fill="#FFF4D9" stroke="black" stroke-width="8"/>
<circle cx="272.431" cy="337.768" r="59.5125" fill="#FFB1B1"/>
<path d="M364.585 265.551C380.458 285.937 372.822 318.649 347.207 338.593C321.592 358.538 288.006 357.922 272.134 337.536C256.261 317.15 263.897 284.438 289.512 264.494C315.127 244.55 348.713 245.166 364.585 265.551Z" fill="black" stroke="black"/>
<circle cx="337.119" cy="286.019" r="15.525" fill="white"/>
<circle cx="608.806" cy="349.504" r="59.5125" transform="rotate(-90 608.806 349.504)" fill="#FFB1B1"/>
<path d="M536.589 257.35C556.975 241.477 589.687 249.113 609.631 274.728C629.575 300.343 628.959 333.929 608.574 349.801C588.188 365.674 555.476 358.038 535.532 332.423C515.587 306.808 516.203 273.222 536.589 257.35Z" fill="black" stroke="black"/>
<circle cx="557.056" cy="284.816" r="15.525" transform="rotate(-90 557.056 284.816)" fill="white"/>
<ellipse cx="445.5" cy="288" rx="17.5" ry="10" fill="black"/>
<mask id="path-14-inside-3_119_64" fill="white">
<path fill-rule="evenodd" clip-rule="evenodd" d="M445.081 293.781C442.48 304.186 433.07 311.894 421.859 311.894C410.649 311.894 401.238 304.186 398.638 293.781C398.172 295.645 397.925 297.595 397.925 299.603C397.925 312.822 408.641 323.538 421.859 323.538C435.078 323.538 445.794 312.822 445.794 299.603C445.794 297.595 445.547 295.645 445.081 293.781Z"/>
</mask>
<path fill-rule="evenodd" clip-rule="evenodd" d="M445.081 293.781C442.48 304.186 433.07 311.894 421.859 311.894C410.649 311.894 401.238 304.186 398.638 293.781C398.172 295.645 397.925 297.595 397.925 299.603C397.925 312.822 408.641 323.538 421.859 323.538C435.078 323.538 445.794 312.822 445.794 299.603C445.794 297.595 445.547 295.645 445.081 293.781Z" fill="black"/>
<path d="M445.081 293.781L446.051 293.539L444.111 293.539L445.081 293.781ZM398.638 293.781L399.608 293.539L397.668 293.539L398.638 293.781ZM444.111 293.539C441.619 303.509 432.6 310.894 421.859 310.894V312.894C433.54 312.894 443.342 304.863 446.051 294.024L444.111 293.539ZM421.859 310.894C411.119 310.894 402.1 303.509 399.608 293.539L397.668 294.024C400.377 304.863 410.179 312.894 421.859 312.894V310.894ZM398.925 299.603C398.925 297.678 399.162 295.809 399.608 294.024L397.668 293.539C397.182 295.481 396.925 297.513 396.925 299.603H398.925ZM421.859 322.538C409.193 322.538 398.925 312.269 398.925 299.603H396.925C396.925 313.374 408.089 324.538 421.859 324.538V322.538ZM444.794 299.603C444.794 312.269 434.526 322.538 421.859 322.538V324.538C435.63 324.538 446.794 313.374 446.794 299.603H444.794ZM444.111 294.024C444.557 295.809 444.794 297.678 444.794 299.603H446.794C446.794 297.513 446.536 295.481 446.051 293.539L444.111 294.024Z" fill="black" mask="url(#path-14-inside-3_119_64)"/>
<mask id="path-16-inside-4_119_64" fill="white">
<path fill-rule="evenodd" clip-rule="evenodd" d="M491.656 293.781C489.055 304.186 479.645 311.894 468.434 311.894C457.224 311.894 447.813 304.186 445.213 293.781C444.747 295.645 444.5 297.595 444.5 299.603C444.5 312.822 455.216 323.538 468.434 323.538C481.653 323.538 492.369 312.822 492.369 299.603C492.369 297.595 492.121 295.645 491.656 293.781Z"/>
</mask>
<path fill-rule="evenodd" clip-rule="evenodd" d="M491.656 293.781C489.055 304.186 479.645 311.894 468.434 311.894C457.224 311.894 447.813 304.186 445.213 293.781C444.747 295.645 444.5 297.595 444.5 299.603C444.5 312.822 455.216 323.538 468.434 323.538C481.653 323.538 492.369 312.822 492.369 299.603C492.369 297.595 492.121 295.645 491.656 293.781Z" fill="black"/>
<path d="M491.656 293.781L492.626 293.539L490.686 293.539L491.656 293.781ZM445.213 293.781L446.183 293.539L444.243 293.539L445.213 293.781ZM490.686 293.539C488.194 303.509 479.175 310.894 468.434 310.894V312.894C480.115 312.894 489.917 304.863 492.626 294.024L490.686 293.539ZM468.434 310.894C457.693 310.894 448.675 303.509 446.183 293.539L444.243 294.024C446.952 304.863 456.754 312.894 468.434 312.894V310.894ZM445.5 299.603C445.5 297.678 445.737 295.809 446.183 294.024L444.243 293.539C443.757 295.481 443.5 297.513 443.5 299.603H445.5ZM468.434 322.538C455.768 322.538 445.5 312.269 445.5 299.603H443.5C443.5 313.374 454.664 324.538 468.434 324.538V322.538ZM491.369 299.603C491.369 312.269 481.101 322.538 468.434 322.538V324.538C482.205 324.538 493.369 313.374 493.369 299.603H491.369ZM490.686 294.024C491.132 295.809 491.369 297.678 491.369 299.603H493.369C493.369 297.513 493.111 295.481 492.626 293.539L490.686 294.024Z" fill="black" mask="url(#path-16-inside-4_119_64)"/>
<circle cx="153.372" cy="553.222" r="73.7438" transform="rotate(-15.1731 153.372 553.222)" fill="black"/>
<circle cx="90.5427" cy="517.2" r="22.5328" transform="rotate(-15.1731 90.5427 517.2)" fill="black"/>
<circle cx="90.5426" cy="517.2" r="14.3391" transform="rotate(-15.1731 90.5426 517.2)" fill="#FFF4D9"/>
<circle cx="132.094" cy="482.585" r="22.5328" transform="rotate(-15.1731 132.094 482.585)" fill="black"/>
<circle cx="132.094" cy="482.585" r="14.3391" transform="rotate(-15.1731 132.094 482.585)" fill="#FFF4D9"/>
<circle cx="189.394" cy="490.392" r="22.5328" transform="rotate(-15.1731 189.394 490.392)" fill="black"/>
<circle cx="189.394" cy="490.392" r="14.3391" transform="rotate(-15.1731 189.394 490.392)" fill="#FFF4D9"/>
<circle cx="152.652" cy="554.479" r="37.8961" transform="rotate(-15.1731 152.652 554.479)" fill="#FFF4D9"/>
<circle cx="731.855" cy="557.291" r="73.7438" transform="rotate(15.17 731.855 557.291)" fill="black"/>
<circle cx="695.83" cy="494.463" r="22.5328" transform="rotate(15.17 695.83 494.463)" fill="black"/>
<circle cx="695.83" cy="494.463" r="14.3391" transform="rotate(15.17 695.83 494.463)" fill="#FFF4D9"/>
<circle cx="749.176" cy="485.581" r="22.5328" transform="rotate(15.17 749.176 485.581)" fill="black"/>
<circle cx="749.176" cy="485.581" r="14.3391" transform="rotate(15.17 749.176 485.581)" fill="#FFF4D9"/>
<circle cx="794.683" cy="521.266" r="22.5328" transform="rotate(15.17 794.683 521.266)" fill="black"/>
<circle cx="794.683" cy="521.266" r="14.3391" transform="rotate(15.17 794.683 521.266)" fill="#FFF4D9"/>
<circle cx="730.599" cy="558.011" r="37.8961" transform="rotate(15.17 730.599 558.011)" fill="#FFF4D9"/>
<path d="M232.666 756.695C231.201 759.202 229.288 761.146 226.926 762.526C224.585 763.868 221.924 764.472 218.942 764.335C215.998 764.221 212.917 763.224 209.699 761.344L204.76 758.458L197.382 771.085L184.923 763.805L208.14 724.071L225.538 734.237C230.402 737.079 233.403 740.489 234.542 744.466C235.718 748.466 235.093 752.542 232.666 756.695ZM214.035 750.702C216.616 752.211 218.618 751.749 220.039 749.317C221.46 746.885 220.879 744.915 218.298 743.407L214.762 741.341L210.499 748.637L214.035 750.702Z" fill="black"/>
<path d="M284.598 763.222L265.793 805.225L252.622 799.329L259.953 782.955L247.435 777.35L240.105 793.724L226.934 787.828L245.739 745.825L258.91 751.722L252.137 766.85L264.654 772.454L271.427 757.326L284.598 763.222Z" fill="black"/>
<path d="M308.025 812.086L293.391 807.484L289.134 813.436L274.687 808.892L304.554 770.043L320.427 775.035L322.618 823.967L308.108 819.403L308.025 812.086ZM307.933 800.678L307.806 787.215L299.996 798.182L307.933 800.678Z" fill="black"/>
<path d="M375.183 834.352L361.005 831.663L350.31 806.082L345.998 828.817L331.821 826.128L340.396 780.914L354.573 783.603L365.196 809.567L369.581 786.449L383.758 789.138L375.183 834.352Z" fill="black"/>
<path d="M409.828 791.392C414.626 791.74 418.748 793.016 422.194 795.22C425.684 797.428 428.276 800.331 429.971 803.929C431.666 807.528 432.353 811.531 432.034 815.939C431.718 820.305 430.461 824.167 428.263 827.527C426.065 830.888 423.077 833.452 419.299 835.22C415.568 836.949 411.304 837.64 406.506 837.292L387.381 835.908L390.703 790.008L409.828 791.392ZM406.139 824.362C409.38 824.597 412.016 823.897 414.046 822.262C416.076 820.628 417.21 818.168 417.447 814.884C417.685 811.599 416.917 809.002 415.144 807.092C413.371 805.182 410.863 804.11 407.622 803.876L404.186 803.627L402.703 824.113L406.139 824.362Z" fill="black"/>
<path d="M470.886 830.993L455.56 831.651L453.585 838.698L438.454 839.348L453.299 792.648L469.923 791.933L488.653 837.191L473.457 837.844L470.886 830.993ZM466.913 820.299L462.207 807.684L458.601 820.656L466.913 820.299Z" fill="black"/>
<path d="M542.318 828.429L525.319 811.443L529.181 831.021L515.024 833.813L506.117 788.664L520.274 785.871L524.023 804.875L533.22 783.317L549.226 780.16L537.931 804.847L559.153 825.108L542.318 828.429Z" fill="black"/>
<path d="M570.199 773.809L582.898 818.042L569.028 822.024L556.329 777.791L570.199 773.809Z" fill="black"/>
<path d="M595.911 765.021C600.407 763.312 604.683 762.729 608.738 763.274C612.833 763.803 616.408 765.341 619.463 767.888C622.518 770.435 624.831 773.775 626.402 777.906C627.957 781.997 628.447 786.029 627.872 790.003C627.297 793.977 625.67 797.563 622.991 800.76C620.338 803.902 616.763 806.327 612.267 808.037L594.344 814.852L577.988 771.836L595.911 765.021ZM606.478 796.469C609.516 795.314 611.61 793.567 612.761 791.229C613.912 788.89 613.902 786.182 612.731 783.104C611.561 780.026 609.769 777.995 607.355 777.012C604.942 776.029 602.216 776.115 599.178 777.27L595.958 778.494L603.258 797.693L606.478 796.469Z" fill="black"/>
<path d="M628.03 751.525L640.898 745.288L642.359 765.888L633.819 770.028L628.03 751.525Z" fill="black"/>
<path d="M687.653 772.514C682.907 775.3 678.336 776.502 673.94 776.118C669.559 775.675 665.977 773.381 663.192 769.237L676.421 761.471C677.946 763.641 679.624 764.188 681.455 763.113C682.128 762.718 682.6 762.239 682.873 761.677C683.162 761.056 683.108 760.409 682.713 759.736C682.165 758.802 681.222 758.351 679.884 758.382C678.524 758.377 676.559 758.626 673.99 759.129C670.923 759.724 668.296 760.085 666.11 760.213C663.961 760.319 661.806 759.901 659.645 758.959C657.483 758.017 655.665 756.245 654.188 753.645C652.674 751.067 652.045 748.497 652.3 745.935C652.57 743.314 653.57 740.867 655.301 738.595C657.07 736.3 659.393 734.308 662.27 732.619C667.128 729.767 671.635 728.628 675.792 729.203C679.985 729.755 683.353 732.025 685.894 736.01L672.497 743.875C671.801 742.776 671.049 742.137 670.241 741.959C669.433 741.78 668.655 741.91 667.907 742.349C667.384 742.656 667.064 743.095 666.947 743.667C666.808 744.2 666.925 744.785 667.298 745.42C667.825 746.317 668.75 746.779 670.072 746.807C671.41 746.775 673.404 746.534 676.054 746.083C679.107 745.547 681.688 745.238 683.8 745.154C685.949 745.048 688.071 745.41 690.166 746.24C692.261 747.07 693.989 748.643 695.35 750.96C696.776 753.389 697.461 755.926 697.406 758.572C697.329 761.179 696.469 763.694 694.826 766.116C693.183 768.538 690.792 770.671 687.653 772.514Z" fill="black"/>
</svg>
